<mxfile host="app.diagrams.net" modified="2024-07-16T21:34:58.502Z" agent="Mozilla/5.0 (Macintosh; Intel Mac OS X 10_15_7) AppleWebKit/605.1.15 (KHTML, like Gecko) Version/17.3.1 Safari/605.1.15" version="24.7.0" etag="SkqA4nT2OmUSGeUhbdNx" type="github">
  <diagram name="Page-1" id="SyuC8NNujFCqG88zZAfR">
    <mxGraphModel>
      <root>
        <mxCell id="0" />
        <mxCell id="1" parent="0" />
      </root>
    </mxGraphModel>
  </diagram>
</mxfile>
